<svg width="1202" height="424" viewBox="0 0 1202 424" fill="none" xmlns="http://www.w3.org/2000/svg">
  <path
    d="M874.474 86.5572L914.583 161.755C916.321 165.014 919.713 167.049 923.406 167.049H1015.27C1018.96 167.049 1022.36 165.014 1024.09 161.755L1064.2 86.5572"
    stroke="#908BFF"
    stroke-width="2"
  />
  <path d="M106.927 86.5572C738.384 86.5572 470.118 86.5572 1101.57 86.5572" stroke="#908BFF" stroke-width="2" />
  <path
    d="M239.332 140.298V234.041C239.332 237.102 240.733 239.994 243.136 241.89L308.833 293.752C311.235 295.649 312.637 298.541 312.637 301.601L312.637 324.279"
    stroke="#908BFF"
    stroke-width="2"
  />
  <path
    d="M239.163 141.735V235.478C239.163 238.539 237.762 241.431 235.359 243.327L169.662 295.19C167.26 297.086 165.858 299.978 165.858 303.039L165.858 325.716"
    stroke="#908BFF"
    stroke-width="2"
  />
  <path
    d="M791.275 140.298V234.041C791.275 237.102 792.676 239.994 795.078 241.89L860.776 293.752C863.178 295.649 864.58 298.541 864.58 301.601L864.58 324.279"
    stroke="#908BFF"
    stroke-width="2"
  />
  <path
    d="M791.106 141.735V235.478C791.106 238.539 789.705 241.431 787.302 243.327L721.605 295.19C719.203 297.086 717.801 299.978 717.801 303.039L717.801 325.716"
    stroke="#908BFF"
    stroke-width="2"
  />
  <path
    d="M53.7447 139.302C82.8748 139.302 106.489 115.687 106.489 86.5572C106.489 57.4271 82.8748 33.8125 53.7447 33.8125C24.6146 33.8125 1 57.4271 1 86.5572C1 115.687 24.6146 139.302 53.7447 139.302Z"
    fill="white"
    stroke="#908BFF"
    stroke-width="2"
  />
  <path
    fill-rule="evenodd"
    clip-rule="evenodd"
    d="M54.5337 93.8305H32.1506C29.9147 93.8305 28.7141 91.1993 30.1802 89.509L54.05 61.9874C55.7137 60.07 58.8493 61.4859 58.516 63.9992L54.5337 93.8305Z"
    fill="#635DFF"
  />
  <path
    fill-rule="evenodd"
    clip-rule="evenodd"
    d="M52.3184 78.4767H74.7044C76.9403 78.4767 78.1409 81.1079 76.6749 82.7982L52.8021 110.323C51.1384 112.24 48.0028 110.824 48.3361 108.311L52.3184 78.4767Z"
    fill="#635DFF"
  />
  <path
    d="M239.164 139.302C268.294 139.302 291.909 115.687 291.909 86.5572C291.909 57.4271 268.294 33.8125 239.164 33.8125C210.034 33.8125 186.419 57.4271 186.419 86.5572C186.419 115.687 210.034 139.302 239.164 139.302Z"
    fill="white"
    stroke="#908BFF"
    stroke-width="2"
  />
  <path
    d="M256.155 111.164H221.221C218.452 111.164 216.208 108.919 216.208 106.15V88.6345C216.208 85.8652 218.452 83.6208 221.221 83.6208H256.155C258.924 83.6208 261.169 85.8652 261.169 88.6345V106.15C261.169 108.919 258.924 111.164 256.155 111.164Z"
    fill="#D0CEFF"
  />
  <path
    d="M238.651 103.59C242.099 103.59 244.895 100.795 244.895 97.3466C244.895 93.8984 242.099 91.103 238.651 91.103C235.203 91.103 232.408 93.8984 232.408 97.3466C232.408 100.795 235.203 103.59 238.651 103.59Z"
    fill="#635DFF"
  />
  <path
    d="M231.184 83.6208V76.0884C231.184 71.9506 234.537 68.5973 238.675 68.5973C242.813 68.5973 246.166 71.9506 246.166 76.0884L246.19 76.1091C246.19 78.1824 247.871 79.8634 249.944 79.8634C252.017 79.8634 253.698 78.1824 253.698 76.1091L253.704 76.1267C253.707 67.8276 246.977 61.0974 238.675 61.0974C230.376 61.0974 223.646 67.8276 223.646 76.1297V83.6208"
    fill="#635DFF"
  />
  <path
    d="M515.135 139.302C544.265 139.302 567.88 115.687 567.88 86.5572C567.88 57.4271 544.265 33.8125 515.135 33.8125C486.005 33.8125 462.39 57.4271 462.39 86.5572C462.39 115.687 486.005 139.302 515.135 139.302Z"
    fill="white"
    stroke="#908BFF"
    stroke-width="2"
  />
  <path
    d="M495.859 74.9366C495.859 69.3686 500.375 64.8524 505.943 64.8524C511.514 64.8524 516.027 69.3686 516.027 74.9366C516.027 80.5046 511.511 85.0209 505.943 85.0209C500.375 85.0209 495.859 80.5076 495.859 74.9366Z"
    fill="#635DFF"
  />
  <path
    d="M492.872 91.8304C494.919 89.7829 497.694 88.6339 500.59 88.6339H511.296C514.192 88.6339 516.967 89.7829 519.015 91.8304C521.062 93.8779 522.211 96.653 522.211 99.549V101.723C522.211 104.139 520.252 106.098 517.836 106.098H494.05C491.634 106.098 489.675 104.139 489.675 101.723V99.549C489.675 96.656 490.824 93.8779 492.872 91.8304Z"
    fill="#D0CEFF"
  />
  <path
    d="M539.413 81.4431C538.948 80.6417 538.097 80.2028 537.23 80.2263C537.23 80.2234 537.227 80.2204 537.227 80.2175C536.576 80.2234 535.943 79.8934 535.595 79.2895C535.242 78.6797 535.274 77.952 535.616 77.3893C535.613 77.3864 535.61 77.3834 535.607 77.3805C535.625 77.354 535.645 77.3274 535.66 77.298C536.338 76.1343 535.946 74.6407 534.779 73.9601C533.616 73.2825 532.122 73.6744 531.441 74.841C531.424 74.8705 531.409 74.9029 531.394 74.9323C531.391 74.9323 531.388 74.9323 531.383 74.9294C531.223 75.2122 530.994 75.4567 530.693 75.6305C529.803 76.1461 528.663 75.8426 528.148 74.9529C528.142 74.9441 528.139 74.9353 528.133 74.9235C528.127 74.9235 528.121 74.9264 528.118 74.9264C528.101 74.894 528.089 74.8646 528.071 74.8322C527.397 73.6655 525.903 73.2678 524.736 73.9425C523.602 74.5994 523.198 76.0312 523.799 77.1831C523.826 77.2214 523.85 77.2567 523.873 77.295C524.389 78.1847 524.085 79.3249 523.195 79.8404C522.916 80.0024 522.612 80.082 522.312 80.0908V80.0938C522.279 80.0908 522.247 80.0879 522.212 80.0879C520.865 80.0761 519.76 81.1573 519.749 82.5036C519.737 83.85 520.818 84.9547 522.164 84.9665C522.197 84.9665 522.229 84.9636 522.262 84.9636V84.9665C522.916 84.9547 523.558 85.2876 523.911 85.8945C524.268 86.5132 524.232 87.2497 523.879 87.8153L523.882 87.8183C523.864 87.8448 523.847 87.8713 523.829 87.8978C523.151 89.0615 523.543 90.5551 524.71 91.2357C525.873 91.9133 527.367 91.5214 528.048 90.3548C528.062 90.3283 528.074 90.3018 528.089 90.2753H528.092C528.251 89.9836 528.487 89.7273 528.796 89.5476C529.686 89.032 530.826 89.3355 531.341 90.2252C531.353 90.2429 531.362 90.2635 531.371 90.2812C531.374 90.2812 531.377 90.2812 531.377 90.2812C531.783 91.0442 532.582 91.5656 533.507 91.5745C534.853 91.5862 535.958 90.505 535.969 89.1587C535.975 88.6756 535.837 88.2248 535.598 87.8448L535.601 87.8418C535.13 86.961 535.436 85.8592 536.308 85.3554C536.588 85.1934 536.895 85.1138 537.195 85.105C537.195 85.102 537.195 85.102 537.198 85.0991C537.649 85.1197 538.108 85.0166 538.527 84.775C539.69 84.1004 540.088 82.6097 539.413 81.4431ZM531.925 83.8617C531.226 85.0578 529.691 85.4644 528.492 84.7662C527.296 84.068 526.89 82.5331 527.588 81.334C528.286 80.138 529.821 79.7314 531.02 80.4296C532.216 81.1278 532.623 82.6657 531.925 83.8617Z"
    fill="#A5A0FF"
  />
  <path
    d="M791.106 139.302C820.236 139.302 843.85 115.687 843.85 86.5572C843.85 57.4271 820.236 33.8125 791.106 33.8125C761.975 33.8125 738.361 57.4271 738.361 86.5572C738.361 115.687 761.975 139.302 791.106 139.302Z"
    fill="white"
    stroke="#908BFF"
    stroke-width="2"
  />
  <path
    d="M772.309 68.6073H788.176V108.66H772.309C771.216 108.66 770.167 108.225 769.395 107.451C768.622 106.677 768.188 105.626 768.188 104.531V72.7365C768.188 71.6414 768.622 70.5911 769.395 69.8168C770.167 69.0424 771.216 68.6073 772.309 68.6073V68.6073Z"
    fill="#A5A0FF"
  />
  <path
    d="M804.073 108.66H788.176V88.6339H808.202V104.531C808.202 105.626 807.767 106.677 806.993 107.451C806.218 108.225 805.168 108.66 804.073 108.66V108.66Z"
    fill="#D0CEFF"
  />
  <path
    d="M793.182 63.6007H809.228C810.339 63.6007 811.405 64.0422 812.191 64.8282C812.977 65.6141 813.419 66.6801 813.419 67.7916V83.6273H793.182V63.6007Z"
    fill="#635DFF"
  />
  <path
    d="M1147.57 139.302C1176.7 139.302 1200.31 115.687 1200.31 86.5572C1200.31 57.4271 1176.7 33.8125 1147.57 33.8125C1118.44 33.8125 1094.82 57.4271 1094.82 86.5572C1094.82 115.687 1118.44 139.302 1147.57 139.302Z"
    fill="white"
    stroke="#908BFF"
    stroke-width="2"
  />
  <path
    d="M1127.15 81.0641H1129.56C1132.34 81.0641 1134.6 83.3215 1134.6 86.1069V106.121C1134.6 108.906 1132.34 111.164 1129.56 111.164H1127.15C1124.37 111.164 1122.11 108.906 1122.11 106.121V86.1069C1122.11 83.3215 1124.37 81.0641 1127.15 81.0641Z"
    fill="#635DFF"
  />
  <path
    d="M1164.73 71.0169H1167.13C1169.92 71.0169 1172.18 73.2744 1172.18 76.0598V106.121C1172.18 108.906 1169.92 111.164 1167.13 111.164H1164.73C1161.94 111.164 1159.68 108.906 1159.68 106.121V76.0598C1159.68 73.2744 1161.94 71.0169 1164.73 71.0169Z"
    fill="#D0CEFF"
  />
  <path
    d="M1144.64 61.0974H1149.65C1152.41 61.0974 1154.65 63.3469 1154.65 66.1227V106.139C1154.65 108.914 1152.41 111.164 1149.65 111.164H1144.64C1141.87 111.164 1139.63 108.914 1139.63 106.139V66.1227C1139.63 63.3469 1141.87 61.0974 1144.64 61.0974Z"
    fill="#A5A0FF"
  />
  <circle cx="971.842" cy="169.553" r="43.75" fill="white" stroke="#908BFF" stroke-width="2" />
  <path
    fill-rule="evenodd"
    clip-rule="evenodd"
    d="M987.287 153.537L972.818 148.719C972.414 148.582 971.99 148.517 971.569 148.519C971.147 148.517 970.723 148.582 970.316 148.719L955.851 153.537C954.075 154.129 952.876 155.791 952.876 157.664V172.934L952.895 172.99C953.18 177.088 963.824 187.149 971.493 189.882H971.644C979.313 187.149 989.959 177.088 990.242 172.99L990.259 172.934V157.664C990.259 155.791 989.063 154.129 987.287 153.537Z"
    fill="#D0CEFF"
  />
  <path
    fill-rule="evenodd"
    clip-rule="evenodd"
    d="M981.376 165.501L969.532 177.346L966.404 174.218L978.248 162.373C979.113 161.509 980.514 161.509 981.376 162.373C982.241 163.238 982.241 164.639 981.376 165.501Z"
    fill="#635DFF"
  />
  <path
    fill-rule="evenodd"
    clip-rule="evenodd"
    d="M962.611 170.408L969.542 177.339L972.604 174.276L965.673 167.346C964.828 166.5 963.456 166.5 962.611 167.346C961.766 168.191 961.766 169.562 962.611 170.408Z"
    fill="#635DFF"
  />
  <circle cx="862.808" cy="355.901" r="41.2459" fill="white" stroke="#908BFF" stroke-width="2" />
  <path
    d="M857.059 348.258V338.649C857.059 337.598 856.198 336.736 855.148 336.736H845.554C844.504 336.736 843.644 337.598 843.644 338.649V348.237C843.644 349.289 844.504 350.151 845.554 350.151H855.127C856.198 350.172 857.059 349.31 857.059 348.258Z"
    fill="#D0CEFF"
  />
  <path
    d="M855.834 367.384C853.152 367.384 851.006 365.002 851.274 362.174C851.522 359.728 853.709 357.942 856.103 357.942H869.329C873.724 357.942 877.665 354.646 878.098 350.117C878.593 344.949 874.632 340.569 869.7 340.569H861.797C860.766 340.569 859.92 341.441 859.92 342.504C859.92 343.567 860.766 344.439 861.797 344.439H869.432C871.867 344.439 874.095 346.247 874.343 348.735C874.632 351.605 872.445 354.029 869.7 354.029H856.206C851.852 354.029 847.952 357.304 847.519 361.77C847.024 366.894 850.944 371.232 855.834 371.232H863.82C864.851 371.232 865.697 370.361 865.697 369.297C865.697 368.234 864.851 367.362 863.82 367.362H855.834V367.384Z"
    fill="#635DFF"
  />
  <path
    d="M882.05 373.179V363.726C882.05 362.69 881.185 361.84 880.129 361.84H870.479C869.423 361.84 868.558 362.69 868.558 363.726V373.179C868.558 374.215 869.423 375.065 870.479 375.065H880.108C881.185 375.065 882.05 374.215 882.05 373.179Z"
    fill="#A5A0FF"
  />
  <circle cx="962.143" cy="355.901" r="41.2459" fill="white" stroke="#908BFF" stroke-width="2" />
  <path
    d="M965.977 369.301H958.312V369.285V373.161C958.312 374.213 957.459 375.065 956.408 375.065C955.356 375.065 954.504 374.213 954.504 373.161V369.285V369.301H952.534C950.44 369.301 948.741 367.604 948.741 365.508V363.545H948.764H944.883C943.831 363.545 942.979 362.692 942.979 361.641C942.979 360.589 943.831 359.736 944.883 359.736H948.759H948.737V352.07H948.759H944.883C943.831 352.07 942.979 351.217 942.979 350.163C942.979 349.112 943.831 348.259 944.883 348.259H948.759H948.737V346.296C948.737 344.202 950.433 342.503 952.529 342.503H954.499V342.519V338.64C954.499 337.589 955.352 336.736 956.403 336.736C957.455 336.736 958.308 337.589 958.308 338.64V342.517V342.501H965.972V342.517V338.64C965.972 337.589 966.825 336.736 967.876 336.736C968.928 336.736 969.781 337.589 969.781 338.64V342.517V342.501H971.744C973.837 342.501 975.536 344.197 975.536 346.293V348.256H975.523H979.399C980.451 348.256 981.303 349.109 981.303 350.161C981.303 351.212 980.451 352.065 979.399 352.065H975.523H975.536V359.73H975.523H979.399C980.451 359.73 981.303 360.582 981.303 361.634C981.303 362.685 980.451 363.538 979.399 363.538H975.523H975.536V365.501C975.536 367.595 973.84 369.294 971.744 369.294H969.781V369.278V373.154C969.781 374.206 968.928 375.059 967.876 375.059C966.825 375.059 965.972 374.206 965.972 373.154V369.278"
    fill="#D0CEFF"
  />
  <path
    d="M957.36 348.245H966.922C968.511 348.245 969.799 349.533 969.799 351.122V360.679C969.799 362.268 968.511 363.556 966.922 363.556H957.36C955.772 363.556 954.483 362.268 954.483 360.679V351.122C954.483 349.533 955.772 348.245 957.36 348.245Z"
    fill="#635DFF"
  />
  <circle cx="312.467" cy="355.901" r="41.2459" fill="white" stroke="#908BFF" stroke-width="2" />
  <rect x="297.135" y="336.736" width="30.6635" height="38.3294" rx="5" fill="#D0CEFF" />
  <rect x="302.885" y="353.984" width="19.1648" height="5.74941" rx="1.5" fill="white" />
  <rect x="302.885" y="361.65" width="19.1648" height="5.74941" rx="1.5" fill="#635DFF" />
  <ellipse cx="312.467" cy="346.318" rx="3.83294" ry="3.83294" fill="#635DFF" />
  <path
    d="M717.801 397.147C740.581 397.147 759.047 378.68 759.047 355.901C759.047 333.121 740.581 314.655 717.801 314.655C695.022 314.655 676.556 333.121 676.556 355.901C676.556 378.68 695.022 397.147 717.801 397.147Z"
    fill="white"
    stroke="#908BFF"
    stroke-width="2"
  />
  <path
    d="M717.963 360.244C718.581 360.9 719.156 361.605 719.683 362.354C733.995 348.191 737.075 339.774 736.888 338.009C736.856 337.698 736.714 337.414 736.495 337.193C736.491 337.188 736.383 337.082 736.383 337.082L736.376 337.076C736.081 336.787 735.56 336.704 735.152 336.747C733.204 336.949 725.471 341.129 713.303 356.666C716.258 358.271 717.963 360.244 717.963 360.244Z"
    fill="#635DFF"
  />
  <path
    d="M714.996 361.134C714.996 361.134 712.225 358.219 708.377 359.479C704.53 360.74 703.48 367.391 702.183 369.808C700.885 372.222 699.343 372.779 698.77 373.255C698.148 373.776 699.733 374.919 702.927 375.049C706.934 375.214 713.21 374.132 716.033 370.91C718.315 368.306 717.629 363.668 714.996 361.134Z"
    fill="#D0CEFF"
  />
  <path
    d="M67.1834 397.147C89.9628 397.147 108.429 378.68 108.429 355.901C108.429 333.121 89.9628 314.655 67.1834 314.655C44.4039 314.655 25.9375 333.121 25.9375 355.901C25.9375 378.68 44.4039 397.147 67.1834 397.147Z"
    fill="white"
    stroke="#908BFF"
    stroke-width="2"
  />
  <path
    d="M67.1833 375.43C76.7092 375.43 84.4315 373.262 84.4315 370.587C84.4315 367.913 76.7092 365.744 67.1833 365.744C57.6574 365.744 49.9351 367.913 49.9351 370.587C49.9351 373.262 57.6574 375.43 67.1833 375.43Z"
    fill="#A5A0FF"
  />
  <path d="M84.429 358.072H49.9351V370.6H84.429V358.072Z" fill="#A5A0FF" />
  <path
    d="M67.1833 362.826C76.7092 362.826 84.4315 360.658 84.4315 357.983C84.4315 355.309 76.7092 353.14 67.1833 353.14C57.6574 353.14 49.9351 355.309 49.9351 357.983C49.9351 360.658 57.6574 362.826 67.1833 362.826Z"
    fill="#D0CEFF"
  />
  <path
    d="M67.1833 358.743C76.7092 358.743 84.4315 356.575 84.4315 353.9C84.4315 351.225 76.7092 349.057 67.1833 349.057C57.6574 349.057 49.9351 351.225 49.9351 353.9C49.9351 356.575 57.6574 358.743 67.1833 358.743Z"
    fill="#A5A0FF"
  />
  <path d="M84.429 341.671H49.9351V353.913H84.429V341.671Z" fill="#A5A0FF" />
  <path
    d="M67.1833 346.422C76.7092 346.422 84.4315 344.254 84.4315 341.579C84.4315 338.904 76.7092 336.736 67.1833 336.736C57.6574 336.736 49.9351 338.904 49.9351 341.579C49.9351 344.254 57.6574 346.422 67.1833 346.422Z"
    fill="#D0CEFF"
  />
  <path
    d="M53.7888 351.411C54.3599 351.342 54.7526 350.701 54.6659 349.977C54.5792 349.254 54.046 348.723 53.4749 348.792C52.9039 348.86 52.5112 349.502 52.5979 350.225C52.6846 350.948 53.2178 351.479 53.7888 351.411Z"
    fill="#635DFF"
  />
  <path
    d="M53.7888 368.024C54.3599 367.956 54.7526 367.314 54.6659 366.591C54.5792 365.867 54.046 365.336 53.4749 365.405C52.9039 365.473 52.5112 366.115 52.5979 366.838C52.6846 367.562 53.2178 368.093 53.7888 368.024Z"
    fill="#635DFF"
  />
  <path
    d="M165.857 397.147C188.637 397.147 207.103 378.68 207.103 355.901C207.103 333.121 188.637 314.655 165.857 314.655C143.078 314.655 124.611 333.121 124.611 355.901C124.611 378.68 143.078 397.147 165.857 397.147Z"
    fill="white"
    stroke="#908BFF"
    stroke-width="2"
  />
  <path
    d="M160.47 343.989H147.976C147.268 343.989 146.692 343.414 146.692 342.705C146.692 341.997 147.268 341.421 147.976 341.421H160.47C161.179 341.421 161.754 341.997 161.754 342.705C161.754 343.414 161.179 343.989 160.47 343.989Z"
    fill="#A5A0FF"
  />
  <path
    d="M160.47 348.673H147.976C147.268 348.673 146.692 348.098 146.692 347.389C146.692 346.681 147.268 346.105 147.976 346.105H160.47C161.179 346.105 161.754 346.681 161.754 347.389C161.754 348.098 161.179 348.673 160.47 348.673Z"
    fill="#A5A0FF"
  />
  <path
    d="M151.102 353.36C151.054 353.36 151.008 353.357 150.959 353.352C150.255 353.275 149.748 352.639 149.826 351.935L151.386 337.878C151.464 337.174 152.1 336.662 152.804 336.745C153.507 336.822 154.015 337.458 153.937 338.162L152.374 352.219C152.301 352.874 151.745 353.36 151.102 353.36Z"
    fill="#A5A0FF"
  />
  <path
    d="M155.786 353.36C155.738 353.36 155.692 353.357 155.643 353.352C154.939 353.275 154.432 352.639 154.51 351.935L156.073 337.878C156.15 337.174 156.794 336.662 157.49 336.745C158.194 336.822 158.701 337.458 158.623 338.162L157.061 352.219C156.988 352.874 156.432 353.36 155.786 353.36Z"
    fill="#A5A0FF"
  />
  <path
    d="M159.635 374.77L154.184 370.875L148.733 374.77C148.279 375.093 147.65 374.77 147.65 374.214V360.235C147.65 359.203 148.485 358.368 149.517 358.368H158.851C159.882 358.368 160.717 359.203 160.717 360.235V374.214C160.717 374.77 160.089 375.095 159.635 374.77Z"
    fill="#635DFF"
  />
  <path
    d="M183.623 338.132C181.759 336.271 178.74 336.271 176.876 338.132L175.956 339.052L175.126 338.222C173.294 336.387 170.302 336.246 168.409 338.018C166.428 339.87 166.389 342.976 168.292 344.879L169.212 345.799L175.6 352.187C175.799 352.386 176.121 352.386 176.32 352.187L182.708 345.799L183.63 344.877C185.487 343.015 185.487 339.996 183.623 338.132Z"
    fill="#635DFF"
  />
  <path
    d="M177.774 362.514V358.934C177.774 357.451 176.572 356.247 175.087 356.247L171.507 364.305V374.787H181.844C182.737 374.796 183.501 374.148 183.635 373.265L184.87 364.572C185.018 363.594 184.346 362.681 183.368 362.533C183.273 362.519 183.176 362.511 183.079 362.514H177.774V362.514Z"
    fill="#D0CEFF"
  />
  <path
    d="M171.508 374.787H168.166C167.178 374.787 166.375 373.986 166.375 372.996V366.093C166.375 365.106 167.175 364.302 168.166 364.302H171.508"
    fill="#A5A0FF"
  />
  <path
    d="M18.7976 5.125H21.2976C20.9794 2.82386 18.951 1.20455 16.3203 1.20455C13.2464 1.20455 10.8771 3.42045 10.8771 7.19318C10.8771 10.875 13.093 13.1591 16.3714 13.1591C19.3089 13.1591 21.4055 11.3011 21.4055 8.23864V6.77273H16.5362V8.625H19.0362C19.0021 10.0682 18.0192 10.983 16.3828 10.983C14.5362 10.983 13.3714 9.60227 13.3714 7.17045C13.3714 4.75 14.5817 3.38068 16.3601 3.38068C17.6271 3.38068 18.4851 4.03409 18.7976 5.125ZM27.1854 13.1705C29.3445 13.1705 30.799 12.1193 31.1399 10.5L28.9013 10.3523C28.657 11.017 28.032 11.3636 27.2251 11.3636C26.0149 11.3636 25.2479 10.5625 25.2479 9.26136V9.25568H31.1911V8.59091C31.1911 5.625 29.3956 4.15909 27.0888 4.15909C24.5206 4.15909 22.8558 5.98295 22.8558 8.67614C22.8558 11.4432 24.4979 13.1705 27.1854 13.1705ZM25.2479 7.75568C25.299 6.76136 26.0547 5.96591 27.1286 5.96591C28.1797 5.96591 28.907 6.71591 28.9126 7.75568H25.2479ZM37.4126 4.27273H35.7706V2.18182H33.3501V4.27273H32.157V6.09091H33.3501V10.6364C33.3388 12.3466 34.5036 13.1932 36.2592 13.1193C36.8842 13.0966 37.3274 12.9716 37.5717 12.892L37.1911 11.0909C37.0717 11.1136 36.8161 11.1705 36.5888 11.1705C36.1058 11.1705 35.7706 10.9886 35.7706 10.3182V6.09091H37.4126V4.27273ZM49.0504 4.71023H51.4084C51.3743 2.63636 49.6697 1.20455 47.0788 1.20455C44.5277 1.20455 42.6584 2.61364 42.6697 4.72727C42.6641 6.44318 43.8743 7.42614 45.8402 7.89773L47.1072 8.21591C48.3743 8.52273 49.0788 8.88636 49.0845 9.67045C49.0788 10.5227 48.272 11.1023 47.022 11.1023C45.7436 11.1023 44.8232 10.5114 44.7436 9.34659H42.3629C42.4254 11.8636 44.2266 13.1648 47.0504 13.1648C49.8913 13.1648 51.5618 11.8068 51.5675 9.67614C51.5618 7.73864 50.1016 6.71023 48.0788 6.25568L47.0334 6.00568C46.022 5.77273 45.1754 5.39773 45.1925 4.5625C45.1925 3.8125 45.8572 3.26136 47.0618 3.26136C48.2379 3.26136 48.9595 3.79545 49.0504 4.71023ZM57.8189 4.27273H56.1768V2.18182H53.7564V4.27273H52.5632V6.09091H53.7564V10.6364C53.745 12.3466 54.9098 13.1932 56.6655 13.1193C57.2905 13.0966 57.7337 12.9716 57.978 12.892L57.5973 11.0909C57.478 11.1136 57.2223 11.1705 56.995 11.1705C56.5121 11.1705 56.1768 10.9886 56.1768 10.3182V6.09091H57.8189V4.27273ZM61.8842 13.1648C63.174 13.1648 64.0092 12.6023 64.4354 11.7898H64.5036V13H66.799V7.11364C66.799 5.03409 65.0376 4.15909 63.0945 4.15909C61.0036 4.15909 59.6286 5.15909 59.2933 6.75L61.532 6.93182C61.6967 6.35227 62.2138 5.92614 63.0831 5.92614C63.907 5.92614 64.3786 6.34091 64.3786 7.05682V7.09091C64.3786 7.65341 63.782 7.72727 62.2649 7.875C60.5376 8.03409 58.9865 8.61364 58.9865 10.5625C58.9865 12.2898 60.2195 13.1648 61.8842 13.1648ZM62.5774 11.4943C61.8331 11.4943 61.299 11.1477 61.299 10.483C61.299 9.80114 61.8615 9.46591 62.7138 9.34659C63.2422 9.27273 64.1058 9.14773 64.3956 8.95455V9.88068C64.3956 10.7955 63.6399 11.4943 62.5774 11.4943ZM68.6768 13H71.0973V8.0625C71.0973 6.98864 71.8814 6.25 72.9496 6.25C73.2848 6.25 73.745 6.30682 73.9723 6.38068V4.23295C73.7564 4.18182 73.4553 4.14773 73.2109 4.14773C72.2337 4.14773 71.4325 4.71591 71.1143 5.79545H71.0234V4.27273H68.6768V13ZM80.3033 4.27273H78.6612V2.18182H76.2408V4.27273H75.0476V6.09091H76.2408V10.6364C76.2294 12.3466 77.3942 13.1932 79.1499 13.1193C79.7749 13.0966 80.218 12.9716 80.4624 12.892L80.0817 11.0909C79.9624 11.1136 79.7067 11.1705 79.4794 11.1705C78.9964 11.1705 78.6612 10.9886 78.6612 10.3182V6.09091H80.3033V4.27273ZM85.7635 13.1705C87.9226 13.1705 89.3771 12.1193 89.718 10.5L87.4794 10.3523C87.2351 11.017 86.6101 11.3636 85.8033 11.3636C84.593 11.3636 83.826 10.5625 83.826 9.26136V9.25568H89.7692V8.59091C89.7692 5.625 87.9737 4.15909 85.6669 4.15909C83.0987 4.15909 81.4339 5.98295 81.4339 8.67614C81.4339 11.4432 83.076 13.1705 85.7635 13.1705ZM83.826 7.75568C83.8771 6.76136 84.6328 5.96591 85.7067 5.96591C86.7578 5.96591 87.4851 6.71591 87.4908 7.75568H83.826ZM94.5646 13.142C95.9737 13.142 96.7067 12.3295 97.0419 11.6023H97.1442V13H99.5305V1.36364H97.1158V5.73864H97.0419C96.718 5.02841 96.0192 4.15909 94.5589 4.15909C92.6442 4.15909 91.0249 5.64773 91.0249 8.64773C91.0249 11.5682 92.576 13.142 94.5646 13.142ZM95.3317 11.2159C94.1442 11.2159 93.4964 10.1591 93.4964 8.63636C93.4964 7.125 94.1328 6.08523 95.3317 6.08523C96.5078 6.08523 97.1669 7.07955 97.1669 8.63636C97.1669 10.1932 96.4964 11.2159 95.3317 11.2159Z"
    fill="#42464D"
  />
  <path
    d="M191.516 13L192.38 10.3466H196.579L197.442 13H200.079L196.067 1.36364H192.897L188.88 13H191.516ZM193.005 8.42614L194.437 4.02273H194.528L195.959 8.42614H193.005ZM207.03 9.28409C207.036 10.4545 206.235 11.0682 205.366 11.0682C204.451 11.0682 203.86 10.4261 203.854 9.39773V4.27273H201.434V9.82955C201.44 11.8693 202.633 13.1136 204.388 13.1136C205.701 13.1136 206.644 12.4375 207.036 11.4148H207.127V13H209.451V4.27273H207.03V9.28409ZM216.029 4.27273H214.387V2.18182H211.967V4.27273H210.773V6.09091H211.967V10.6364C211.955 12.3466 213.12 13.1932 214.876 13.1193C215.501 13.0966 215.944 12.9716 216.188 12.892L215.807 11.0909C215.688 11.1136 215.432 11.1705 215.205 11.1705C214.722 11.1705 214.387 10.9886 214.387 10.3182V6.09091H216.029V4.27273ZM220.214 7.95455C220.219 6.82955 220.907 6.17045 221.896 6.17045C222.878 6.17045 223.458 6.80114 223.452 7.875V13H225.873V7.44318C225.878 5.39773 224.674 4.15909 222.856 4.15909C221.532 4.15909 220.646 4.78409 220.248 5.8125H220.146V1.36364H217.793V13H220.214V7.95455ZM231.755 13.1705C233.914 13.1705 235.369 12.1193 235.709 10.5L233.471 10.3523C233.227 11.017 232.602 11.3636 231.795 11.3636C230.584 11.3636 229.817 10.5625 229.817 9.26136V9.25568H235.761V8.59091C235.761 5.625 233.965 4.15909 231.658 4.15909C229.09 4.15909 227.425 5.98295 227.425 8.67614C227.425 11.4432 229.067 13.1705 231.755 13.1705ZM229.817 7.75568C229.869 6.76136 230.624 5.96591 231.698 5.96591C232.749 5.96591 233.477 6.71591 233.482 7.75568H229.817ZM239.761 7.95455C239.766 6.82955 240.437 6.17045 241.414 6.17045C242.386 6.17045 242.971 6.80682 242.965 7.875V13H245.386V7.44318C245.386 5.40909 244.192 4.15909 242.374 4.15909C241.079 4.15909 240.141 4.79545 239.749 5.8125H239.647V4.27273H237.34V13H239.761V7.95455ZM251.935 4.27273H250.293V2.18182H247.873V4.27273H246.68V6.09091H247.873V10.6364C247.861 12.3466 249.026 13.1932 250.782 13.1193C251.407 13.0966 251.85 12.9716 252.094 12.892L251.714 11.0909C251.594 11.1136 251.339 11.1705 251.111 11.1705C250.628 11.1705 250.293 10.9886 250.293 10.3182V6.09091H251.935V4.27273ZM253.512 13H255.932V4.27273H253.512V13ZM254.728 3.14773C255.45 3.14773 256.04 2.59659 256.04 1.92045C256.04 1.25 255.45 0.698863 254.728 0.698863C254.012 0.698863 253.421 1.25 253.421 1.92045C253.421 2.59659 254.012 3.14773 254.728 3.14773ZM261.815 13.1705C264.138 13.1705 265.599 11.8068 265.712 9.80114H263.428C263.286 10.733 262.673 11.2557 261.843 11.2557C260.712 11.2557 259.979 10.3068 259.979 8.63636C259.979 6.98864 260.718 6.04545 261.843 6.04545C262.729 6.04545 263.298 6.63068 263.428 7.5H265.712C265.61 5.48295 264.082 4.15909 261.803 4.15909C259.155 4.15909 257.519 5.99432 257.519 8.67045C257.519 11.3239 259.127 13.1705 261.815 13.1705ZM269.751 13.1648C271.04 13.1648 271.876 12.6023 272.302 11.7898H272.37V13H274.665V7.11364C274.665 5.03409 272.904 4.15909 270.961 4.15909C268.87 4.15909 267.495 5.15909 267.16 6.75L269.398 6.93182C269.563 6.35227 270.08 5.92614 270.95 5.92614C271.773 5.92614 272.245 6.34091 272.245 7.05682V7.09091C272.245 7.65341 271.648 7.72727 270.131 7.875C268.404 8.03409 266.853 8.61364 266.853 10.5625C266.853 12.2898 268.086 13.1648 269.751 13.1648ZM270.444 11.4943C269.7 11.4943 269.165 11.1477 269.165 10.483C269.165 9.80114 269.728 9.46591 270.58 9.34659C271.109 9.27273 271.972 9.14773 272.262 8.95455V9.88068C272.262 10.7955 271.506 11.4943 270.444 11.4943ZM281.185 4.27273H279.543V2.18182H277.123V4.27273H275.93V6.09091H277.123V10.6364C277.111 12.3466 278.276 13.1932 280.032 13.1193C280.657 13.0966 281.1 12.9716 281.344 12.892L280.964 11.0909C280.844 11.1136 280.589 11.1705 280.361 11.1705C279.878 11.1705 279.543 10.9886 279.543 10.3182V6.09091H281.185V4.27273ZM286.646 13.1705C288.805 13.1705 290.259 12.1193 290.6 10.5L288.361 10.3523C288.117 11.017 287.492 11.3636 286.685 11.3636C285.475 11.3636 284.708 10.5625 284.708 9.26136V9.25568H290.651V8.59091C290.651 5.625 288.856 4.15909 286.549 4.15909C283.981 4.15909 282.316 5.98295 282.316 8.67614C282.316 11.4432 283.958 13.1705 286.646 13.1705ZM284.708 7.75568C284.759 6.76136 285.515 5.96591 286.589 5.96591C287.64 5.96591 288.367 6.71591 288.373 7.75568H284.708Z"
    fill="#42464D"
  />
  <path
    d="M460.716 1.36364V13H463.103V5.39773H463.199L466.211 12.9432H467.836L470.847 5.42614H470.944V13H473.33V1.36364H470.296L467.091 9.18182H466.955L463.751 1.36364H460.716ZM477.8 13.1648C479.09 13.1648 479.925 12.6023 480.351 11.7898H480.42V13H482.715V7.11364C482.715 5.03409 480.954 4.15909 479.01 4.15909C476.92 4.15909 475.545 5.15909 475.209 6.75L477.448 6.93182C477.613 6.35227 478.13 5.92614 478.999 5.92614C479.823 5.92614 480.295 6.34091 480.295 7.05682V7.09091C480.295 7.65341 479.698 7.72727 478.181 7.875C476.454 8.03409 474.902 8.61364 474.902 10.5625C474.902 12.2898 476.135 13.1648 477.8 13.1648ZM478.493 11.4943C477.749 11.4943 477.215 11.1477 477.215 10.483C477.215 9.80114 477.777 9.46591 478.63 9.34659C479.158 9.27273 480.022 9.14773 480.312 8.95455V9.88068C480.312 10.7955 479.556 11.4943 478.493 11.4943ZM487.013 7.95455C487.019 6.82955 487.689 6.17045 488.667 6.17045C489.638 6.17045 490.224 6.80682 490.218 7.875V13H492.638V7.44318C492.638 5.40909 491.445 4.15909 489.627 4.15909C488.331 4.15909 487.394 4.79545 487.002 5.8125H486.9V4.27273H484.593V13H487.013V7.95455ZM497.035 13.1648C498.324 13.1648 499.16 12.6023 499.586 11.7898H499.654V13H501.949V7.11364C501.949 5.03409 500.188 4.15909 498.245 4.15909C496.154 4.15909 494.779 5.15909 494.444 6.75L496.682 6.93182C496.847 6.35227 497.364 5.92614 498.233 5.92614C499.057 5.92614 499.529 6.34091 499.529 7.05682V7.09091C499.529 7.65341 498.932 7.72727 497.415 7.875C495.688 8.03409 494.137 8.61364 494.137 10.5625C494.137 12.2898 495.37 13.1648 497.035 13.1648ZM497.728 11.4943C496.983 11.4943 496.449 11.1477 496.449 10.483C496.449 9.80114 497.012 9.46591 497.864 9.34659C498.393 9.27273 499.256 9.14773 499.546 8.95455V9.88068C499.546 10.7955 498.79 11.4943 497.728 11.4943ZM507.759 16.3977C510.253 16.3977 512.026 15.2614 512.026 13.0852V4.27273H509.623V5.73864H509.532C509.208 5.02841 508.498 4.15909 507.037 4.15909C505.123 4.15909 503.503 5.64773 503.503 8.61932C503.503 11.5227 505.077 12.875 507.043 12.875C508.435 12.875 509.214 12.1761 509.532 11.4545H509.634V13.0511C509.634 14.1932 508.867 14.6591 507.816 14.6591C506.748 14.6591 506.208 14.1932 506.009 13.7216L503.77 14.0227C504.06 15.3409 505.407 16.3977 507.759 16.3977ZM507.81 11.0568C506.623 11.0568 505.975 10.1136 505.975 8.60795C505.975 7.125 506.611 6.08523 507.81 6.08523C508.986 6.08523 509.645 7.07955 509.645 8.60795C509.645 10.1477 508.975 11.0568 507.81 11.0568ZM517.929 13.1705C520.089 13.1705 521.543 12.1193 521.884 10.5L519.645 10.3523C519.401 11.017 518.776 11.3636 517.969 11.3636C516.759 11.3636 515.992 10.5625 515.992 9.26136V9.25568H521.935V8.59091C521.935 5.625 520.14 4.15909 517.833 4.15909C515.265 4.15909 513.6 5.98295 513.6 8.67614C513.6 11.4432 515.242 13.1705 517.929 13.1705ZM515.992 7.75568C516.043 6.76136 516.799 5.96591 517.873 5.96591C518.924 5.96591 519.651 6.71591 519.657 7.75568H515.992ZM534.451 1.36364V8.71023C534.451 10.0398 533.519 11 532.087 11C530.661 11 529.724 10.0398 529.724 8.71023V1.36364H527.263V8.92045C527.263 11.4659 529.184 13.1648 532.087 13.1648C534.979 13.1648 536.911 11.4659 536.911 8.92045V1.36364H534.451ZM546.151 6.76136C545.935 5.15341 544.64 4.15909 542.435 4.15909C540.202 4.15909 538.731 5.19318 538.736 6.875C538.731 8.18182 539.554 9.02841 541.259 9.36932L542.77 9.67045C543.532 9.82386 543.878 10.1023 543.89 10.5398C543.878 11.0568 543.316 11.4261 542.469 11.4261C541.606 11.4261 541.032 11.0568 540.884 10.3466L538.503 10.4716C538.731 12.142 540.151 13.1705 542.464 13.1705C544.725 13.1705 546.344 12.017 546.35 10.2955C546.344 9.03409 545.52 8.27841 543.827 7.93182L542.248 7.61364C541.435 7.4375 541.134 7.15909 541.14 6.73864C541.134 6.21591 541.725 5.875 542.475 5.875C543.316 5.875 543.816 6.33523 543.935 6.89773L546.151 6.76136ZM551.851 13.1705C554.01 13.1705 555.465 12.1193 555.806 10.5L553.567 10.3523C553.323 11.017 552.698 11.3636 551.891 11.3636C550.681 11.3636 549.914 10.5625 549.914 9.26136V9.25568H555.857V8.59091C555.857 5.625 554.062 4.15909 551.755 4.15909C549.187 4.15909 547.522 5.98295 547.522 8.67614C547.522 11.4432 549.164 13.1705 551.851 13.1705ZM549.914 7.75568C549.965 6.76136 550.721 5.96591 551.795 5.96591C552.846 5.96591 553.573 6.71591 553.579 7.75568H549.914ZM557.437 13H559.857V8.0625C559.857 6.98864 560.641 6.25 561.709 6.25C562.045 6.25 562.505 6.30682 562.732 6.38068V4.23295C562.516 4.18182 562.215 4.14773 561.971 4.14773C560.993 4.14773 560.192 4.71591 559.874 5.79545H559.783V4.27273H557.437V13ZM571.245 6.76136C571.029 5.15341 569.733 4.15909 567.529 4.15909C565.296 4.15909 563.824 5.19318 563.83 6.875C563.824 8.18182 564.648 9.02841 566.353 9.36932L567.864 9.67045C568.626 9.82386 568.972 10.1023 568.983 10.5398C568.972 11.0568 568.41 11.4261 567.563 11.4261C566.699 11.4261 566.126 11.0568 565.978 10.3466L563.597 10.4716C563.824 12.142 565.245 13.1705 567.557 13.1705C569.819 13.1705 571.438 12.017 571.444 10.2955C571.438 9.03409 570.614 8.27841 568.921 7.93182L567.341 7.61364C566.529 7.4375 566.228 7.15909 566.233 6.73864C566.228 6.21591 566.819 5.875 567.569 5.875C568.41 5.875 568.91 6.33523 569.029 6.89773L571.245 6.76136Z"
    fill="#42464D"
  />
  <path
    d="M761.335 5.4375C761.011 2.75 758.977 1.20455 756.283 1.20455C753.21 1.20455 750.863 3.375 750.863 7.18182C750.863 10.9773 753.17 13.1591 756.283 13.1591C759.266 13.1591 761.068 11.1761 761.335 9.03409L758.846 9.02273C758.613 10.267 757.636 10.983 756.323 10.983C754.556 10.983 753.357 9.67045 753.357 7.18182C753.357 4.76136 754.539 3.38068 756.34 3.38068C757.687 3.38068 758.658 4.15909 758.846 5.4375H761.335ZM768.65 9.28409C768.656 10.4545 767.855 11.0682 766.985 11.0682C766.07 11.0682 765.48 10.4261 765.474 9.39773V4.27273H763.053V9.82955C763.059 11.8693 764.252 13.1136 766.008 13.1136C767.32 13.1136 768.264 12.4375 768.656 11.4148H768.747V13H771.07V4.27273H768.65V9.28409ZM780.268 6.76136C780.052 5.15341 778.756 4.15909 776.552 4.15909C774.319 4.15909 772.847 5.19318 772.853 6.875C772.847 8.18182 773.671 9.02841 775.376 9.36932L776.887 9.67045C777.649 9.82386 777.995 10.1023 778.006 10.5398C777.995 11.0568 777.433 11.4261 776.586 11.4261C775.722 11.4261 775.149 11.0568 775.001 10.3466L772.62 10.4716C772.847 12.142 774.268 13.1705 776.58 13.1705C778.842 13.1705 780.461 12.017 780.467 10.2955C780.461 9.03409 779.637 8.27841 777.944 7.93182L776.364 7.61364C775.552 7.4375 775.251 7.15909 775.256 6.73864C775.251 6.21591 775.842 5.875 776.592 5.875C777.433 5.875 777.933 6.33523 778.052 6.89773L780.268 6.76136ZM786.633 4.27273H784.991V2.18182H782.57V4.27273H781.377V6.09091H782.57V10.6364C782.559 12.3466 783.724 13.1932 785.48 13.1193C786.105 13.0966 786.548 12.9716 786.792 12.892L786.411 11.0909C786.292 11.1136 786.036 11.1705 785.809 11.1705C785.326 11.1705 784.991 10.9886 784.991 10.3182V6.09091H786.633V4.27273ZM792.059 13.1705C794.707 13.1705 796.355 11.358 796.355 8.67045C796.355 5.96591 794.707 4.15909 792.059 4.15909C789.411 4.15909 787.764 5.96591 787.764 8.67045C787.764 11.358 789.411 13.1705 792.059 13.1705ZM792.07 11.2955C790.849 11.2955 790.224 10.1761 790.224 8.65341C790.224 7.13068 790.849 6.00568 792.07 6.00568C793.269 6.00568 793.894 7.13068 793.894 8.65341C793.894 10.1761 793.269 11.2955 792.07 11.2955ZM797.928 13H800.349V7.76136C800.349 6.79545 800.962 6.15341 801.769 6.15341C802.565 6.15341 803.099 6.69886 803.099 7.55682V13H805.445V7.67045C805.445 6.76705 805.962 6.15341 806.843 6.15341C807.616 6.15341 808.195 6.63636 808.195 7.60795V13H810.61V7.13068C810.61 5.23864 809.485 4.15909 807.86 4.15909C806.582 4.15909 805.587 4.8125 805.23 5.8125H805.139C804.86 4.80114 803.968 4.15909 802.769 4.15909C801.593 4.15909 800.701 4.78409 800.337 5.8125H800.235V4.27273H797.928V13ZM812.522 13H814.943V4.27273H812.522V13ZM813.738 3.14773C814.46 3.14773 815.051 2.59659 815.051 1.92045C815.051 1.25 814.46 0.698863 813.738 0.698863C813.022 0.698863 812.431 1.25 812.431 1.92045C812.431 2.59659 813.022 3.14773 813.738 3.14773ZM816.836 13H824.171V11.0682H820.012V11.0057L824.024 5.84659V4.27273H816.984V6.20455H821.109V6.26705L816.836 11.5568V13ZM829.749 13.1705C831.908 13.1705 833.363 12.1193 833.704 10.5L831.465 10.3523C831.221 11.017 830.596 11.3636 829.789 11.3636C828.579 11.3636 827.812 10.5625 827.812 9.26136V9.25568H833.755V8.59091C833.755 5.625 831.96 4.15909 829.653 4.15909C827.085 4.15909 825.42 5.98295 825.42 8.67614C825.42 11.4432 827.062 13.1705 829.749 13.1705ZM827.812 7.75568C827.863 6.76136 828.619 5.96591 829.693 5.96591C830.744 5.96591 831.471 6.71591 831.477 7.75568H827.812Z"
    fill="#42464D"
  />
  <path
    d="M1126.12 13C1129.67 13 1131.82 10.8068 1131.82 7.17045C1131.82 3.54545 1129.67 1.36364 1126.16 1.36364H1122V13H1126.12ZM1124.46 10.892V3.47159H1126.03C1128.21 3.47159 1129.36 4.58523 1129.36 7.17045C1129.36 9.76705 1128.21 10.892 1126.02 10.892H1124.46ZM1137.57 13.1705C1139.73 13.1705 1141.19 12.1193 1141.53 10.5L1139.29 10.3523C1139.04 11.017 1138.42 11.3636 1137.61 11.3636C1136.4 11.3636 1135.63 10.5625 1135.63 9.26136V9.25568H1141.58V8.59091C1141.58 5.625 1139.78 4.15909 1137.48 4.15909C1134.91 4.15909 1133.24 5.98295 1133.24 8.67614C1133.24 11.4432 1134.88 13.1705 1137.57 13.1705ZM1135.63 7.75568C1135.69 6.76136 1136.44 5.96591 1137.52 5.96591C1138.57 5.96591 1139.29 6.71591 1139.3 7.75568H1135.63ZM1143.16 16.2727H1145.58V11.6023H1145.65C1145.99 12.3295 1146.72 13.142 1148.13 13.142C1150.12 13.142 1151.67 11.5682 1151.67 8.64773C1151.67 5.64773 1150.05 4.15909 1148.13 4.15909C1146.67 4.15909 1145.98 5.02841 1145.65 5.73864H1145.54V4.27273H1143.16V16.2727ZM1145.53 8.63636C1145.53 7.07955 1146.19 6.08523 1147.36 6.08523C1148.56 6.08523 1149.2 7.125 1149.2 8.63636C1149.2 10.1591 1148.55 11.2159 1147.36 11.2159C1146.2 11.2159 1145.53 10.1932 1145.53 8.63636ZM1155.7 1.36364H1153.28V13H1155.7V1.36364ZM1161.58 13.1705C1164.23 13.1705 1165.88 11.358 1165.88 8.67045C1165.88 5.96591 1164.23 4.15909 1161.58 4.15909C1158.94 4.15909 1157.29 5.96591 1157.29 8.67045C1157.29 11.358 1158.94 13.1705 1161.58 13.1705ZM1161.6 11.2955C1160.37 11.2955 1159.75 10.1761 1159.75 8.65341C1159.75 7.13068 1160.37 6.00568 1161.6 6.00568C1162.79 6.00568 1163.42 7.13068 1163.42 8.65341C1163.42 10.1761 1162.79 11.2955 1161.6 11.2955ZM1168.65 16.2557C1170.45 16.2557 1171.41 15.3409 1171.9 13.9432L1175.29 4.28409L1172.73 4.27273L1170.91 10.6818H1170.82L1169.01 4.27273H1166.46L1169.59 13.25L1169.45 13.6193C1169.11 14.4091 1168.53 14.4659 1167.67 14.1989L1167.13 16.0114C1167.48 16.1534 1168.04 16.2557 1168.65 16.2557Z"
    fill="#42464D"
  />
  <path
    d="M885.14 420.313H893.003V418.284H887.6V415.506H892.577V413.477H887.6V410.705H892.981V408.676H885.14V420.313ZM896.914 411.585H894.414L896.914 415.949L894.323 420.313H896.823L898.516 417.295L900.238 420.313H902.709L900.113 415.949L902.641 411.585H900.158L898.516 414.636L896.914 411.585ZM908.721 411.585H907.079V409.494H904.658V411.585H903.465V413.403H904.658V417.949C904.647 419.659 905.812 420.506 907.567 420.432C908.192 420.409 908.635 420.284 908.88 420.205L908.499 418.403C908.38 418.426 908.124 418.483 907.897 418.483C907.414 418.483 907.079 418.301 907.079 417.631V413.403H908.721V411.585ZM914.181 420.483C916.34 420.483 917.795 419.432 918.135 417.813L915.897 417.665C915.652 418.33 915.027 418.676 914.221 418.676C913.01 418.676 912.243 417.875 912.243 416.574V416.568H918.187V415.903C918.187 412.938 916.391 411.472 914.084 411.472C911.516 411.472 909.851 413.295 909.851 415.989C909.851 418.756 911.493 420.483 914.181 420.483ZM912.243 415.068C912.295 414.074 913.05 413.278 914.124 413.278C915.175 413.278 915.902 414.028 915.908 415.068H912.243ZM922.187 415.267C922.192 414.142 922.863 413.483 923.84 413.483C924.812 413.483 925.397 414.119 925.391 415.188V420.313H927.812V414.756C927.812 412.722 926.618 411.472 924.8 411.472C923.505 411.472 922.567 412.108 922.175 413.125H922.073V411.585H919.766V420.313H922.187V415.267ZM932.935 420.455C934.344 420.455 935.077 419.642 935.412 418.915H935.515V420.313H937.901V408.676H935.486V413.051H935.412C935.089 412.341 934.39 411.472 932.929 411.472C931.015 411.472 929.395 412.96 929.395 415.96C929.395 418.881 930.947 420.455 932.935 420.455ZM933.702 418.528C932.515 418.528 931.867 417.472 931.867 415.949C931.867 414.438 932.503 413.398 933.702 413.398C934.878 413.398 935.537 414.392 935.537 415.949C935.537 417.506 934.867 418.528 933.702 418.528Z"
    fill="#42464D"
  />
  <path
    d="M688.71 420.313H693.682C696.295 420.313 697.687 418.949 697.687 417.097C697.687 415.375 696.454 414.335 695.13 414.273V414.159C696.341 413.886 697.233 413.028 697.233 411.659C697.233 409.915 695.937 408.676 693.369 408.676H688.71V420.313ZM691.17 418.301V415.21H693.233C694.415 415.21 695.148 415.892 695.148 416.852C695.148 417.727 694.551 418.301 693.176 418.301H691.17ZM691.17 413.545V410.665H693.04C694.13 410.665 694.75 411.227 694.75 412.068C694.75 412.989 694 413.545 692.994 413.545H691.17ZM699.243 420.313H701.663V415.375C701.663 414.301 702.447 413.563 703.515 413.563C703.851 413.563 704.311 413.619 704.538 413.693V411.545C704.322 411.494 704.021 411.46 703.777 411.46C702.799 411.46 701.998 412.028 701.68 413.108H701.589V411.585H699.243V420.313ZM708.028 420.477C709.318 420.477 710.153 419.915 710.579 419.102H710.648V420.313H712.943V414.426C712.943 412.347 711.182 411.472 709.238 411.472C707.148 411.472 705.773 412.472 705.437 414.063L707.676 414.244C707.841 413.665 708.358 413.239 709.227 413.239C710.051 413.239 710.523 413.653 710.523 414.369V414.403C710.523 414.966 709.926 415.04 708.409 415.188C706.682 415.347 705.13 415.926 705.13 417.875C705.13 419.602 706.363 420.477 708.028 420.477ZM708.721 418.807C707.977 418.807 707.443 418.46 707.443 417.795C707.443 417.114 708.005 416.778 708.858 416.659C709.386 416.585 710.25 416.46 710.54 416.267V417.193C710.54 418.108 709.784 418.807 708.721 418.807ZM717.241 415.267C717.247 414.142 717.917 413.483 718.895 413.483C719.866 413.483 720.451 414.119 720.446 415.188V420.313H722.866V414.756C722.866 412.722 721.673 411.472 719.855 411.472C718.559 411.472 717.622 412.108 717.23 413.125H717.128V411.585H714.821V420.313H717.241V415.267ZM727.99 420.455C729.399 420.455 730.132 419.642 730.467 418.915H730.569V420.313H732.956V408.676H730.541V413.051H730.467C730.143 412.341 729.444 411.472 727.984 411.472C726.069 411.472 724.45 412.96 724.45 415.96C724.45 418.881 726.001 420.455 727.99 420.455ZM728.757 418.528C727.569 418.528 726.922 417.472 726.922 415.949C726.922 414.438 727.558 413.398 728.757 413.398C729.933 413.398 730.592 414.392 730.592 415.949C730.592 417.506 729.922 418.528 728.757 418.528Z"
    fill="#42464D"
  />
  <path
    d="M275.486 420.313L276.349 417.659H280.548L281.412 420.313H284.048L280.037 408.676H276.866L272.849 420.313H275.486ZM276.974 415.739L278.406 411.335H278.497L279.929 415.739H276.974ZM288.213 420.455C289.622 420.455 290.355 419.642 290.69 418.915H290.793V420.313H293.179V408.676H290.764V413.051H290.69C290.366 412.341 289.668 411.472 288.207 411.472C286.293 411.472 284.673 412.96 284.673 415.96C284.673 418.881 286.224 420.455 288.213 420.455ZM288.98 418.528C287.793 418.528 287.145 417.472 287.145 415.949C287.145 414.438 287.781 413.398 288.98 413.398C290.156 413.398 290.815 414.392 290.815 415.949C290.815 417.506 290.145 418.528 288.98 418.528ZM298.385 420.455C299.794 420.455 300.527 419.642 300.862 418.915H300.964V420.313H303.351V408.676H300.936V413.051H300.862C300.538 412.341 299.839 411.472 298.379 411.472C296.464 411.472 294.845 412.96 294.845 415.96C294.845 418.881 296.396 420.455 298.385 420.455ZM299.152 418.528C297.964 418.528 297.317 417.472 297.317 415.949C297.317 414.438 297.953 413.398 299.152 413.398C300.328 413.398 300.987 414.392 300.987 415.949C300.987 417.506 300.317 418.528 299.152 418.528ZM309.089 420.313H316.538V418.284H311.55V408.676H309.089V420.313ZM322.065 420.483C324.713 420.483 326.361 418.67 326.361 415.983C326.361 413.278 324.713 411.472 322.065 411.472C319.418 411.472 317.77 413.278 317.77 415.983C317.77 418.67 319.418 420.483 322.065 420.483ZM322.077 418.608C320.855 418.608 320.23 417.489 320.23 415.966C320.23 414.443 320.855 413.318 322.077 413.318C323.276 413.318 323.901 414.443 323.901 415.966C323.901 417.489 323.276 418.608 322.077 418.608ZM331.866 423.71C334.361 423.71 336.134 422.574 336.134 420.398V411.585H333.73V413.051H333.639C333.315 412.341 332.605 411.472 331.145 411.472C329.23 411.472 327.611 412.96 327.611 415.932C327.611 418.835 329.185 420.188 331.151 420.188C332.543 420.188 333.321 419.489 333.639 418.767H333.741V420.364C333.741 421.506 332.974 421.972 331.923 421.972C330.855 421.972 330.315 421.506 330.116 421.034L327.878 421.335C328.168 422.653 329.514 423.71 331.866 423.71ZM331.918 418.369C330.73 418.369 330.082 417.426 330.082 415.92C330.082 414.438 330.719 413.398 331.918 413.398C333.094 413.398 333.753 414.392 333.753 415.92C333.753 417.46 333.082 418.369 331.918 418.369ZM338.06 420.313H340.48V411.585H338.06V420.313ZM339.276 410.46C339.997 410.46 340.588 409.909 340.588 409.233C340.588 408.563 339.997 408.011 339.276 408.011C338.56 408.011 337.969 408.563 337.969 409.233C337.969 409.909 338.56 410.46 339.276 410.46ZM344.839 415.267C344.845 414.142 345.516 413.483 346.493 413.483C347.464 413.483 348.05 414.119 348.044 415.188V420.313H350.464V414.756C350.464 412.722 349.271 411.472 347.453 411.472C346.158 411.472 345.22 412.108 344.828 413.125H344.726V411.585H342.419V420.313H344.839V415.267Z"
    fill="#42464D"
  />
  <path
    d="M55.8551 420.313H58.3153V416.54H60.3835C63.0597 416.54 64.6165 414.943 64.6165 412.619C64.6165 410.307 63.0881 408.676 60.446 408.676H55.8551V420.313ZM58.3153 414.568V410.688H59.9744C61.3949 410.688 62.0824 411.46 62.0824 412.619C62.0824 413.773 61.3949 414.568 59.9858 414.568H58.3153ZM66.169 420.313H68.5895V415.375C68.5895 414.301 69.3736 413.563 70.4418 413.563C70.777 413.563 71.2372 413.619 71.4645 413.693V411.545C71.2486 411.494 70.9474 411.46 70.7031 411.46C69.7259 411.46 68.9247 412.028 68.6065 413.108H68.5156V411.585H66.169V420.313ZM76.2528 420.483C78.9006 420.483 80.5483 418.67 80.5483 415.983C80.5483 413.278 78.9006 411.472 76.2528 411.472C73.6051 411.472 71.9574 413.278 71.9574 415.983C71.9574 418.67 73.6051 420.483 76.2528 420.483ZM76.2642 418.608C75.0426 418.608 74.4176 417.489 74.4176 415.966C74.4176 414.443 75.0426 413.318 76.2642 413.318C77.4631 413.318 78.0881 414.443 78.0881 415.966C78.0881 417.489 77.4631 418.608 76.2642 418.608ZM89.9616 411.585H87.3991L85.5923 417.83H85.5014L83.6889 411.585H81.1321L84.1832 420.313H86.9105L89.9616 411.585ZM91.2003 420.313H93.6207V411.585H91.2003V420.313ZM92.4162 410.46C93.1378 410.46 93.7287 409.909 93.7287 409.233C93.7287 408.563 93.1378 408.011 92.4162 408.011C91.7003 408.011 91.1094 408.563 91.1094 409.233C91.1094 409.909 91.7003 410.46 92.4162 410.46ZM102.821 414.074C102.605 412.466 101.31 411.472 99.1051 411.472C96.8722 411.472 95.4006 412.506 95.4062 414.188C95.4006 415.494 96.2244 416.341 97.929 416.682L99.4403 416.983C100.202 417.136 100.548 417.415 100.56 417.852C100.548 418.369 99.9858 418.739 99.1392 418.739C98.2756 418.739 97.7017 418.369 97.554 417.659L95.1733 417.784C95.4006 419.455 96.821 420.483 99.1335 420.483C101.395 420.483 103.014 419.33 103.02 417.608C103.014 416.347 102.19 415.591 100.497 415.244L98.9176 414.926C98.1051 414.75 97.804 414.472 97.8097 414.051C97.804 413.528 98.3949 413.188 99.1449 413.188C99.9858 413.188 100.486 413.648 100.605 414.21L102.821 414.074ZM104.544 420.313H106.964V411.585H104.544V420.313ZM105.76 410.46C106.482 410.46 107.072 409.909 107.072 409.233C107.072 408.563 106.482 408.011 105.76 408.011C105.044 408.011 104.453 408.563 104.453 409.233C104.453 409.909 105.044 410.46 105.76 410.46ZM112.847 420.483C115.494 420.483 117.142 418.67 117.142 415.983C117.142 413.278 115.494 411.472 112.847 411.472C110.199 411.472 108.551 413.278 108.551 415.983C108.551 418.67 110.199 420.483 112.847 420.483ZM112.858 418.608C111.636 418.608 111.011 417.489 111.011 415.966C111.011 414.443 111.636 413.318 112.858 413.318C114.057 413.318 114.682 414.443 114.682 415.966C114.682 417.489 114.057 418.608 112.858 418.608ZM121.136 415.267C121.142 414.142 121.812 413.483 122.79 413.483C123.761 413.483 124.347 414.119 124.341 415.188V420.313H126.761V414.756C126.761 412.722 125.568 411.472 123.75 411.472C122.455 411.472 121.517 412.108 121.125 413.125H121.023V411.585H118.716V420.313H121.136V415.267ZM139.605 408.676V416.023C139.605 417.352 138.673 418.313 137.241 418.313C135.815 418.313 134.878 417.352 134.878 416.023V408.676H132.418V416.233C132.418 418.778 134.338 420.477 137.241 420.477C140.134 420.477 142.065 418.778 142.065 416.233V408.676H139.605ZM151.305 414.074C151.089 412.466 149.794 411.472 147.589 411.472C145.357 411.472 143.885 412.506 143.891 414.188C143.885 415.494 144.709 416.341 146.413 416.682L147.925 416.983C148.686 417.136 149.033 417.415 149.044 417.852C149.033 418.369 148.47 418.739 147.624 418.739C146.76 418.739 146.186 418.369 146.038 417.659L143.658 417.784C143.885 419.455 145.305 420.483 147.618 420.483C149.879 420.483 151.499 419.33 151.504 417.608C151.499 416.347 150.675 415.591 148.982 415.244L147.402 414.926C146.589 414.75 146.288 414.472 146.294 414.051C146.288 413.528 146.879 413.188 147.629 413.188C148.47 413.188 148.97 413.648 149.089 414.21L151.305 414.074ZM157.006 420.483C159.165 420.483 160.619 419.432 160.96 417.813L158.722 417.665C158.477 418.33 157.852 418.676 157.045 418.676C155.835 418.676 155.068 417.875 155.068 416.574V416.568H161.011V415.903C161.011 412.938 159.216 411.472 156.909 411.472C154.341 411.472 152.676 413.295 152.676 415.989C152.676 418.756 154.318 420.483 157.006 420.483ZM155.068 415.068C155.119 414.074 155.875 413.278 156.949 413.278C158 413.278 158.727 414.028 158.733 415.068H155.068ZM162.591 420.313H165.011V415.375C165.011 414.301 165.795 413.563 166.864 413.563C167.199 413.563 167.659 413.619 167.886 413.693V411.545C167.67 411.494 167.369 411.46 167.125 411.46C166.148 411.46 165.347 412.028 165.028 413.108H164.938V411.585H162.591V420.313ZM176.399 414.074C176.183 412.466 174.888 411.472 172.683 411.472C170.45 411.472 168.979 412.506 168.984 414.188C168.979 415.494 169.803 416.341 171.507 416.682L173.018 416.983C173.78 417.136 174.126 417.415 174.138 417.852C174.126 418.369 173.564 418.739 172.717 418.739C171.854 418.739 171.28 418.369 171.132 417.659L168.751 417.784C168.979 419.455 170.399 420.483 172.712 420.483C174.973 420.483 176.592 419.33 176.598 417.608C176.592 416.347 175.768 415.591 174.075 415.244L172.496 414.926C171.683 414.75 171.382 414.472 171.388 414.051C171.382 413.528 171.973 413.188 172.723 413.188C173.564 413.188 174.064 413.648 174.183 414.21L176.399 414.074Z"
    fill="#42464D"
  />
  <path
    d="M948.273 223.21H950.631C950.597 221.136 948.892 219.705 946.301 219.705C943.75 219.705 941.881 221.114 941.892 223.227C941.886 224.943 943.097 225.926 945.063 226.398L946.33 226.716C947.597 227.023 948.301 227.386 948.307 228.17C948.301 229.023 947.494 229.602 946.244 229.602C944.966 229.602 944.046 229.011 943.966 227.847H941.585C941.648 230.364 943.449 231.665 946.273 231.665C949.114 231.665 950.784 230.307 950.79 228.176C950.784 226.239 949.324 225.21 947.301 224.756L946.256 224.506C945.244 224.273 944.398 223.898 944.415 223.062C944.415 222.312 945.08 221.761 946.284 221.761C947.46 221.761 948.182 222.295 948.273 223.21ZM956.377 231.67C958.536 231.67 959.99 230.619 960.331 229L958.092 228.852C957.848 229.517 957.223 229.864 956.416 229.864C955.206 229.864 954.439 229.062 954.439 227.761V227.756H960.382V227.091C960.382 224.125 958.587 222.659 956.28 222.659C953.712 222.659 952.047 224.483 952.047 227.176C952.047 229.943 953.689 231.67 956.377 231.67ZM954.439 226.256C954.49 225.261 955.246 224.466 956.32 224.466C957.371 224.466 958.098 225.216 958.104 226.256H954.439ZM965.905 231.67C968.229 231.67 969.689 230.307 969.803 228.301H967.519C967.377 229.233 966.763 229.756 965.933 229.756C964.803 229.756 964.07 228.807 964.07 227.136C964.07 225.489 964.808 224.545 965.933 224.545C966.82 224.545 967.388 225.131 967.519 226H969.803C969.7 223.983 968.172 222.659 965.894 222.659C963.246 222.659 961.609 224.494 961.609 227.17C961.609 229.824 963.217 231.67 965.905 231.67ZM976.949 227.784C976.955 228.955 976.154 229.568 975.284 229.568C974.369 229.568 973.779 228.926 973.773 227.898V222.773H971.352V228.33C971.358 230.369 972.551 231.614 974.307 231.614C975.619 231.614 976.563 230.938 976.955 229.915H977.046V231.5H979.369V222.773H976.949V227.784ZM981.306 231.5H983.726V226.562C983.726 225.489 984.51 224.75 985.578 224.75C985.913 224.75 986.374 224.807 986.601 224.881V222.733C986.385 222.682 986.084 222.648 985.84 222.648C984.862 222.648 984.061 223.216 983.743 224.295H983.652V222.773H981.306V231.5ZM991.423 231.67C993.582 231.67 995.037 230.619 995.378 229L993.139 228.852C992.895 229.517 992.27 229.864 991.463 229.864C990.253 229.864 989.486 229.062 989.486 227.761V227.756H995.429V227.091C995.429 224.125 993.634 222.659 991.327 222.659C988.759 222.659 987.094 224.483 987.094 227.176C987.094 229.943 988.736 231.67 991.423 231.67ZM989.486 226.256C989.537 225.261 990.293 224.466 991.367 224.466C992.418 224.466 993.145 225.216 993.151 226.256H989.486Z"
    fill="#42464D"
  />
</svg>